<svg width="1080" height="1080" viewBox="0 0 1080 1080" fill="none" xmlns="http://www.w3.org/2000/svg">
<rect width="1080" height="1080" rx="306" fill="#0505FF"/>
<path fill-rule="evenodd" clip-rule="evenodd" d="M398.631 274.471C381.527 280.407 360.829 302.032 351.49 323.723C347.391 333.237 330.921 371.257 314.89 408.211C298.86 445.165 281.127 486.285 275.484 499.588C269.842 512.891 262.071 530.785 258.213 539.35C252.177 552.761 251.79 555.145 255.421 556.516C257.738 557.392 276.752 557.502 297.674 556.76C318.595 556.021 335.713 556.346 335.713 557.48C335.713 558.617 322.71 595.641 306.813 639.757C261.189 766.397 245.885 810 247.062 810C248.109 810 314.467 729.296 352.107 682.247C361.876 670.038 376.726 651.76 385.111 641.63C393.494 631.504 427.654 589.653 461.019 548.636L521.688 474.056H462.855C430.496 474.056 404.022 473.521 404.022 472.868C404.022 472.213 416.446 449.839 431.632 423.149L459.24 374.617H739.532L786.266 323.707C811.969 295.708 833 272.124 833 271.299C833 270.477 738.018 269.899 621.926 270.015C436.985 270.2 409.339 270.751 398.631 274.471ZM485.113 553.339L543.011 554.065C578.753 554.513 602.907 553.737 606.134 552.038C612.839 548.509 679.989 477.453 679.989 473.89C679.989 472.17 656.958 471.299 615.877 471.465L551.768 471.729L485.113 553.339Z" fill="white"/>
<path fill-rule="evenodd" clip-rule="evenodd" d="M398.631 274.471C381.527 280.407 360.829 302.032 351.49 323.723C347.391 333.237 330.921 371.257 314.89 408.211C298.86 445.165 281.127 486.285 275.484 499.588C269.842 512.891 262.071 530.785 258.213 539.35C252.177 552.761 251.79 555.145 255.421 556.516C257.738 557.392 276.752 557.502 297.674 556.76C318.595 556.021 335.713 556.346 335.713 557.48C335.713 558.617 322.71 595.641 306.813 639.757C261.189 766.397 245.885 810 247.062 810C248.109 810 314.467 729.296 352.107 682.247C361.876 670.038 376.726 651.76 385.111 641.63C393.494 631.504 427.654 589.653 461.019 548.636L521.688 474.056H462.855C430.496 474.056 404.022 473.521 404.022 472.868C404.022 472.213 416.446 449.839 431.632 423.149L459.24 374.617H739.532L786.266 323.707C811.969 295.708 833 272.124 833 271.299C833 270.477 738.018 269.899 621.926 270.015C436.985 270.2 409.339 270.751 398.631 274.471Z" fill="white"/>
</svg>
