<svg width="506" height="466" viewBox="0 0 506 466" fill="none" xmlns="http://www.w3.org/2000/svg">
<path fill-rule="evenodd" clip-rule="evenodd" d="M130.931 3.85804C116.161 8.98127 98.2893 27.642 90.2251 46.3607C86.6861 54.5709 72.4641 87.3814 58.6219 119.271C44.7797 151.161 29.4677 186.646 24.5957 198.126C19.7237 209.606 13.0137 225.048 9.68236 232.439C4.47061 244.012 4.13565 246.07 7.27119 247.252C9.2719 248.008 25.6904 248.104 43.7558 247.463C61.8212 246.826 76.6024 247.106 76.6024 248.085C76.6024 249.066 65.3743 281.016 51.6478 319.087C12.2517 428.372 -0.96291 466 0.0539602 466C0.957583 466 58.2562 396.355 90.7583 355.754C99.1929 345.218 112.016 329.444 119.257 320.703C126.495 311.964 155.991 275.849 184.801 240.452L237.188 176.093H186.387C158.445 176.093 135.586 175.631 135.586 175.068C135.586 174.502 146.313 155.194 159.427 132.162L183.265 90.2805H425.292L465.646 46.3468C487.84 22.1848 506 1.83334 506 1.12133C506 0.411639 423.985 -0.0870289 323.742 0.0126992C164.049 0.172728 140.177 0.648187 130.931 3.85804ZM205.606 244.511L255.6 245.137C286.462 245.525 307.319 244.854 310.105 243.388C315.895 240.343 373.878 179.025 373.878 175.949C373.878 174.465 353.991 173.713 318.518 173.857L263.161 174.084L205.606 244.511Z" fill="#202020"/>
<path fill-rule="evenodd" clip-rule="evenodd" d="M130.931 3.85804C116.161 8.98127 98.2893 27.642 90.2251 46.3607C86.6861 54.5709 72.4641 87.3814 58.6219 119.271C44.7797 151.161 29.4677 186.646 24.5957 198.126C19.7237 209.606 13.0137 225.048 9.68236 232.439C4.47061 244.012 4.13565 246.07 7.27119 247.252C9.2719 248.008 25.6904 248.104 43.7558 247.463C61.8212 246.826 76.6024 247.106 76.6024 248.085C76.6024 249.066 65.3743 281.016 51.6478 319.087C12.2517 428.372 -0.96291 466 0.0539602 466C0.957583 466 58.2562 396.355 90.7583 355.754C99.1929 345.218 112.016 329.444 119.257 320.703C126.495 311.964 155.991 275.849 184.801 240.452L237.188 176.093H186.387C158.445 176.093 135.586 175.631 135.586 175.068C135.586 174.502 146.313 155.194 159.427 132.162L183.265 90.2805H425.292L465.646 46.3468C487.84 22.1848 506 1.83334 506 1.12133C506 0.411639 423.985 -0.0870289 323.742 0.0126992C164.049 0.172728 140.177 0.648187 130.931 3.85804Z" fill="#202020"/>
</svg>
