<svg width="810" height="218" viewBox="0 0 810 218" fill="none" xmlns="http://www.w3.org/2000/svg">
<path fill-rule="evenodd" clip-rule="evenodd" d="M61.9498 1.80483C55.0613 4.20154 46.7257 12.9312 42.9646 21.6881C41.314 25.5289 34.6808 40.878 28.2248 55.7964C21.7687 70.7148 14.6271 87.3149 12.3548 92.6855C10.0825 98.0561 6.95295 105.28 5.39918 108.738C2.96841 114.152 2.81218 115.114 4.27461 115.667C5.20775 116.021 12.8654 116.066 21.2911 115.766C29.7169 115.468 36.6109 115.599 36.6109 116.057C36.6109 116.516 31.3741 131.462 24.972 149.272C6.59754 200.397 0.434196 218 0.908468 218C1.32992 218 28.0542 185.419 43.2133 166.426C47.1472 161.497 53.1279 154.118 56.505 150.029C59.881 145.94 73.6382 129.045 87.0751 112.486L111.508 82.3783H87.8146C74.7826 82.3783 64.1208 82.1623 64.1208 81.8987C64.1208 81.634 69.1244 72.6015 75.2404 61.8267L86.3588 42.2342H199.241L218.062 21.6816C228.414 10.3783 236.883 0.857658 236.883 0.524571C236.883 0.192569 198.631 -0.0407131 151.878 0.0059408C77.396 0.080804 66.2622 0.303229 61.9498 1.80483ZM96.7785 114.385L120.096 114.678C134.49 114.859 144.218 114.546 145.517 113.86C148.218 112.435 175.261 83.7497 175.261 82.311C175.261 81.6166 165.986 81.2651 149.441 81.3323L123.623 81.4387L96.7785 114.385Z" fill="#202020"/>
<path fill-rule="evenodd" clip-rule="evenodd" d="M61.9498 1.80483C55.0613 4.20154 46.7257 12.9312 42.9646 21.6881C41.314 25.5289 34.6808 40.878 28.2248 55.7964C21.7687 70.7148 14.6271 87.3149 12.3548 92.6855C10.0825 98.0561 6.95295 105.28 5.39918 108.738C2.96841 114.152 2.81218 115.114 4.27461 115.667C5.20775 116.021 12.8654 116.066 21.2911 115.766C29.7169 115.468 36.6109 115.599 36.6109 116.057C36.6109 116.516 31.3741 131.462 24.972 149.272C6.59754 200.397 0.434196 218 0.908468 218C1.32992 218 28.0542 185.419 43.2133 166.426C47.1472 161.497 53.1279 154.118 56.505 150.029C59.881 145.94 73.6382 129.045 87.0751 112.486L111.508 82.3783H87.8146C74.7826 82.3783 64.1208 82.1623 64.1208 81.8987C64.1208 81.634 69.1244 72.6015 75.2404 61.8267L86.3588 42.2342H199.241L218.062 21.6816C228.414 10.3783 236.883 0.857658 236.883 0.524571C236.883 0.192569 198.631 -0.0407131 151.878 0.0059408C77.396 0.080804 66.2622 0.303229 61.9498 1.80483Z" fill="#202020"/>
<path fill-rule="evenodd" clip-rule="evenodd" d="M61.9498 1.80483C55.0613 4.20154 46.7257 12.9312 42.9646 21.6881C41.314 25.5289 34.6808 40.878 28.2248 55.7964C21.7687 70.7148 14.6271 87.3149 12.3548 92.6855C10.0825 98.0561 6.95295 105.28 5.39919 108.738C2.96841 114.152 2.81218 115.114 4.27461 115.667C5.20775 116.021 12.8654 116.066 21.2911 115.766C29.7169 115.468 36.6109 115.599 36.6109 116.057C36.6109 116.516 31.3741 131.462 24.972 149.272C6.59754 200.397 0.434196 218 0.908468 218C1.32992 218 28.0542 185.419 43.2133 166.426C47.1472 161.497 53.1279 154.118 56.505 150.029C59.881 145.94 73.6382 129.045 87.0751 112.486L111.508 82.3783H87.8146C74.7826 82.3783 64.1208 82.1623 64.1208 81.8987C64.1208 81.634 69.1244 72.6015 75.2404 61.8267L86.3588 42.2342H199.241L218.062 21.6816C228.414 10.3783 236.883 0.857658 236.883 0.524571C236.883 0.192569 198.631 -0.0407131 151.878 0.0059408C77.396 0.080804 66.2622 0.303229 61.9498 1.80483Z" fill="#0505FF"/>
<path fill-rule="evenodd" clip-rule="evenodd" d="M61.9498 1.80483C55.0613 4.20154 46.7257 12.9312 42.9646 21.6881C41.314 25.5289 34.6808 40.878 28.2248 55.7964C21.7687 70.7148 14.6271 87.3149 12.3548 92.6855C10.0825 98.0561 6.95295 105.28 5.39919 108.738C2.96841 114.152 2.81218 115.114 4.27461 115.667C5.20775 116.021 12.8654 116.066 21.2911 115.766C29.7169 115.468 36.6109 115.599 36.6109 116.057C36.6109 116.516 31.3741 131.462 24.972 149.272C6.59754 200.397 0.434196 218 0.908468 218C1.32992 218 28.0542 185.419 43.2133 166.426C47.1472 161.497 53.1279 154.118 56.505 150.029C59.881 145.94 73.6382 129.045 87.0751 112.486L111.508 82.3783H87.8146C74.7826 82.3783 64.1208 82.1623 64.1208 81.8987C64.1208 81.634 69.1244 72.6015 75.2404 61.8267L86.3588 42.2342H199.241L218.062 21.6816C228.414 10.3783 236.883 0.857658 236.883 0.524571C236.883 0.192569 198.631 -0.0407131 151.878 0.0059408C77.396 0.080804 66.2622 0.303229 61.9498 1.80483Z" fill="#0505FF"/>
<path d="M259.731 39.4848H350.96V57.8235H287.239V69.8945H349.452V88.3493H287.239V120.5H259.731V39.4848ZM361.52 39.3687H389.144V100.42H450.776V120.616H361.52V39.3687ZM459.225 39.1366H552.66V57.5913H486.617V69.6624H551.151V88.2332H486.617V101.581H553.937V120.5H459.225V39.1366ZM622.054 121.893C614.974 121.893 608.59 121.429 602.67 120.384C596.751 119.339 591.76 118.063 587.814 116.438C583.751 114.697 580.269 112.723 577.136 110.402C574.002 107.965 571.564 105.643 569.823 103.206C568.082 100.768 566.69 98.215 565.529 95.4294C564.368 92.6438 563.556 90.0903 563.207 87.885C562.859 85.5636 562.743 83.3583 562.743 81.1531V77.9032C562.743 74.4211 563.091 71.0552 563.788 67.9213C564.484 64.7875 566.109 61.3055 568.547 57.4752C571.1 53.645 574.35 50.2791 578.412 47.4934C582.475 44.7078 588.278 42.3864 595.822 40.5294C603.251 38.5562 612.072 37.6277 622.054 37.6277H626.929C636.794 37.6277 645.383 38.4401 652.928 40.0651C660.356 41.8061 666.16 43.7793 670.222 46.1006C674.284 48.538 677.65 51.2076 680.204 54.3414C682.873 57.4752 684.498 60.2609 685.311 62.6983C686.007 65.1357 686.355 67.4571 686.355 69.6624V70.9391H656.874C656.642 70.0106 656.41 69.3142 656.062 68.6177C655.713 67.9213 654.785 66.7607 653.276 65.2518C651.767 63.7429 650.026 62.4662 647.937 61.4216C645.848 60.3769 642.714 59.4484 638.651 58.6359C634.473 57.8235 629.83 57.3592 624.491 57.3592C618.107 57.3592 612.652 57.9395 608.242 59.2163C603.715 60.3769 600.349 62.0019 598.028 64.0911C595.822 66.2964 594.198 68.5017 593.269 70.823C592.224 73.1444 591.76 75.6979 591.76 78.4835V79.7602C591.76 82.4298 592.34 84.9833 593.385 87.4207C594.43 89.8581 596.171 92.1795 598.492 94.5008C600.813 96.8222 604.179 98.6793 608.706 100.072C613.233 101.465 618.572 102.161 624.723 102.161C642.946 102.161 653.624 97.4025 656.874 88.001C656.99 87.885 656.99 87.7689 656.99 87.6528H686.471V88.8135C686.471 91.2509 686.123 93.8044 685.311 96.3579C684.382 98.9114 682.641 101.697 680.088 104.947C677.418 108.081 674.052 110.866 669.874 113.304C665.811 115.625 660.008 117.714 652.58 119.455C645.151 121.08 636.562 121.893 626.929 121.893H622.054ZM764.812 120.5L730.688 90.2063H722.215V120.5H697.028V40.2972H722.215V65.9482H731.732L763.535 40.2972H795.57L749.259 76.9746L797.775 120.5H764.812ZM256.543 134.739H305.648V144.438H270.939V150.782H304.855V160.542H270.939V167.557H306.319V177.5H256.543V134.739ZM312.778 134.861H329.004L358.711 161.701V134.861H373.107V177.561H358.711L327.113 149.257V177.561H312.778V134.861ZM409.85 178.232C406.129 178.232 402.774 177.988 399.663 177.439C396.552 176.89 393.929 176.219 391.855 175.365C389.72 174.45 387.89 173.413 386.243 172.193C384.596 170.912 383.315 169.692 382.4 168.411C381.485 167.13 380.753 165.788 380.143 164.324C379.533 162.86 379.106 161.518 378.923 160.359C378.74 159.139 378.679 157.98 378.679 156.821V155.113C378.679 153.283 378.862 151.514 379.228 149.867C379.594 148.22 380.448 146.39 381.729 144.377C383.071 142.364 384.779 140.595 386.914 139.131C389.049 137.667 392.099 136.447 396.064 135.471C399.968 134.434 404.604 133.946 409.85 133.946H412.412C417.597 133.946 422.111 134.373 426.076 135.227C429.98 136.142 433.03 137.179 435.165 138.399C437.3 139.68 439.069 141.083 440.411 142.73C441.814 144.377 442.668 145.841 443.095 147.122C443.461 148.403 443.644 149.623 443.644 150.782V151.453H428.15C428.028 150.965 427.906 150.599 427.723 150.233C427.54 149.867 427.052 149.257 426.259 148.464C425.466 147.671 424.551 147 423.453 146.451C422.355 145.902 420.708 145.414 418.573 144.987C416.377 144.56 413.937 144.316 411.131 144.316C407.776 144.316 404.909 144.621 402.591 145.292C400.212 145.902 398.443 146.756 397.223 147.854C396.064 149.013 395.21 150.172 394.722 151.392C394.173 152.612 393.929 153.954 393.929 155.418V156.089C393.929 157.492 394.234 158.834 394.783 160.115C395.332 161.396 396.247 162.616 397.467 163.836C398.687 165.056 400.456 166.032 402.835 166.764C405.214 167.496 408.02 167.862 411.253 167.862C420.83 167.862 426.442 165.361 428.15 160.42C428.211 160.359 428.211 160.298 428.211 160.237H443.705V160.847C443.705 162.128 443.522 163.47 443.095 164.812C442.607 166.154 441.692 167.618 440.35 169.326C438.947 170.973 437.178 172.437 434.982 173.718C432.847 174.938 429.797 176.036 425.893 176.951C421.989 177.805 417.475 178.232 412.412 178.232H409.85ZM593.823 134.434H608.341V155.052C608.341 156.821 608.158 158.651 607.731 160.481C607.304 162.311 606.389 164.263 605.108 166.337C603.827 168.472 602.18 170.363 600.167 171.949C598.154 173.535 595.409 174.877 591.871 175.914C588.394 177.012 584.368 177.5 579.793 177.5H478.228C474.751 177.5 471.64 177.256 468.773 176.707C465.906 176.158 463.527 175.426 461.514 174.511C459.562 173.596 457.854 172.498 456.329 171.217C454.865 169.875 453.645 168.594 452.791 167.252C451.937 165.91 451.205 164.507 450.656 162.982C450.046 161.457 449.68 160.054 449.497 158.773C449.314 157.553 449.253 156.272 449.253 155.052V134.434H463.832V154.259C463.832 155.784 464.076 157.187 464.503 158.468C464.93 159.81 465.662 161.091 466.76 162.372C467.797 163.653 469.383 164.629 471.518 165.422C473.348 166.032 475.544 166.398 477.984 166.459C478.411 166.52 578.146 166.52 578.573 166.52C581.501 166.52 584.063 166.154 586.137 165.422C588.272 164.629 589.858 163.653 590.895 162.372C591.932 161.091 592.725 159.81 593.152 158.468C593.579 157.187 593.823 155.784 593.823 154.259V134.434ZM666.016 159.749C667.48 161.335 668.212 163.409 668.212 165.971V177.5H654.975V169.997C654.975 167.435 654.304 165.544 652.962 164.385C651.62 163.226 649.363 162.616 646.13 162.616H628.928V177.5H615.752V135.532H649.729C661.929 135.532 668.029 139.192 668.029 146.451V147.122C668.029 151.575 665.406 154.625 660.221 156.333C662.6 157.004 664.552 158.102 666.016 159.749ZM654.243 149.196V149.135C654.243 147.915 653.816 146.939 652.962 146.207C652.108 145.475 650.766 145.048 648.936 145.048H628.928V153.344H648.936C650.766 153.344 652.108 152.917 652.962 152.185C653.816 151.453 654.243 150.416 654.243 149.196ZM691.685 177.561V144.987H671.677V134.861H726.455V144.987H706.386V177.561H691.685ZM764.019 135.288L786.711 177.439H772.376L768.411 169.753H737.972L734.007 177.439H719.733L742.364 135.288H764.019ZM742.913 160.237H763.531L755.479 144.743H750.904L742.913 160.237ZM800.724 170.424V178.842H788.097V170.424H800.724Z" fill="#202020"/>
</svg>
