<svg width="1564" height="304" viewBox="0 0 1564 304" fill="none" xmlns="http://www.w3.org/2000/svg">
<path d="M414.274 81.0715H380.15L334.768 0.868684H365.758L397.909 59.8311L428.086 0.868684H456.523L414.274 81.0715ZM463.472 0.636552H556.907V19.0913H490.864V31.1624H555.398V49.7332H490.864V63.081H558.184V82H463.472V0.636552ZM570.472 82.1161V0.868684H609.819L640.345 51.4742L671.103 0.868684H709.057V82.1161H681.665V25.8232L646.845 82.1161H631.988L597.052 25.8232V82.1161H570.472ZM851.77 55.0723H813.003V82.1161H785.379V0.868684H851.77C879.278 0.868684 892.974 9.68983 892.974 27.3321V28.3767C892.974 46.1351 879.278 55.0723 851.77 55.0723ZM813.003 19.3235V36.8497H851.305C859.778 36.8497 864.073 33.948 864.073 28.2607V27.9125C864.073 22.2251 859.778 19.3235 851.305 19.3235H813.003ZM969.108 1.68116L1012.28 81.8839H985.009L977.465 67.2594H919.547L912.002 81.8839H884.843L927.904 1.68116H969.108ZM928.948 49.1528H968.179L952.858 19.6717H944.153L928.948 49.1528ZM1314.73 47.2958C1317.63 50.4296 1319.14 54.492 1319.14 59.4829V82H1293.25V67.3755C1293.25 62.3846 1291.98 58.6704 1289.31 56.4651C1286.75 54.1438 1282.34 52.9831 1276.07 52.9831H1044.75V82H1019.1V0.17228H1283.04C1306.83 0.17228 1318.79 7.25241 1318.79 21.4127V22.6894C1318.79 31.3945 1313.68 37.3139 1303.47 40.6799C1308.11 41.9566 1311.94 44.1619 1314.73 47.2958ZM1291.86 26.7518V26.6357C1291.86 24.3144 1291.05 22.4573 1289.31 20.9484C1287.68 19.5556 1285.01 18.7431 1281.53 18.7431H1044.75V34.8765H1281.53C1285.01 34.8765 1287.68 34.064 1289.31 32.6712C1291.05 31.1624 1291.86 29.1892 1291.86 26.7518ZM1408.78 1.68116L1451.96 81.8839H1424.68L1417.14 67.2594H1359.22L1351.68 81.8839H1324.52L1367.58 1.68116H1408.78ZM1368.62 49.1528H1407.85L1392.53 19.6717H1383.83L1368.62 49.1528ZM419.033 99.6812L462.21 179.884H434.934L427.39 165.259H369.472L361.928 179.884H334.768L377.829 99.6812H419.033ZM378.874 147.153H418.104L402.784 117.672H394.078L378.874 147.153ZM491.544 180.116V98.8687H530.891L561.417 149.474L592.175 98.8687H630.129V180.116H602.737V123.823L567.917 180.116H553.06L518.124 123.823V180.116H491.544ZM721.292 99.6812L764.469 179.884H737.193L729.649 165.259H671.731L664.187 179.884H637.027L680.088 99.6812H721.292ZM681.132 147.153H720.363L705.042 117.672H696.337L681.132 147.153ZM771.285 98.8687H802.159L858.684 149.938V98.8687H886.076V180.116H858.684L798.561 126.261V180.116H771.285V98.8687ZM955.99 181.393C948.91 181.393 942.526 180.929 936.606 179.884C930.687 178.839 925.696 177.563 921.75 175.938C917.687 174.197 914.205 172.223 911.072 169.902C907.938 167.465 905.5 165.143 903.759 162.706C902.018 160.268 900.625 157.715 899.465 154.929C898.304 152.144 897.492 149.59 897.143 147.385C896.795 145.064 896.679 142.858 896.679 140.653V137.403C896.679 133.921 897.027 130.555 897.724 127.421C898.42 124.288 900.045 120.805 902.483 116.975C905.036 113.145 908.286 109.779 912.348 106.993C916.411 104.208 922.214 101.886 929.758 100.029C937.187 98.0562 946.008 97.1277 955.99 97.1277H960.865C970.73 97.1277 979.319 97.9401 986.864 99.5651C994.292 101.306 1000.1 103.279 1004.16 105.601C1008.22 108.038 1011.59 110.708 1014.14 113.841C1016.81 116.975 1018.43 119.761 1019.25 122.198C1019.94 124.636 1020.29 126.957 1020.29 129.162V130.439H990.81C990.578 129.511 990.346 128.814 989.998 128.118C989.649 127.421 988.721 126.261 987.212 124.752C985.703 123.243 983.962 121.966 981.873 120.922C979.784 119.877 976.65 118.948 972.587 118.136C968.409 117.323 963.766 116.859 958.427 116.859C952.043 116.859 946.588 117.44 942.178 118.716C937.651 119.877 934.285 121.502 931.964 123.591C929.758 125.796 928.134 128.002 927.205 130.323C926.16 132.644 925.696 135.198 925.696 137.983V139.26C925.696 141.93 926.276 144.483 927.321 146.921C928.366 149.358 930.107 151.679 932.428 154.001C934.749 156.322 938.115 158.179 942.642 159.572C947.169 160.965 952.508 161.661 958.659 161.661C976.882 161.661 987.56 156.903 990.81 147.501C990.926 147.385 990.926 147.269 990.926 147.153H1020.41V148.314C1020.41 150.751 1020.06 153.304 1019.25 155.858C1018.32 158.411 1016.58 161.197 1014.02 164.447C1011.35 167.581 1007.99 170.366 1003.81 172.804C999.747 175.125 993.944 177.214 986.516 178.955C979.087 180.58 970.498 181.393 960.865 181.393H955.99ZM1305.58 98.4044H1333.55V180H1305.58V147.849H1058.82V180H1030.85V98.4044H1058.82V128.118H1305.58V98.4044ZM1424.61 99.6812L1467.79 179.884H1440.51L1432.97 165.259H1375.05L1367.51 179.884H1340.35L1383.41 99.6812H1424.61ZM1384.45 147.153H1423.68L1408.36 117.672H1399.66L1384.45 147.153ZM431.292 194.964L480.768 286.867H449.513L440.868 270.109H374.501L365.856 286.867H334.734L384.077 194.964H431.292ZM385.274 249.361H430.228L412.672 215.579H402.697L385.274 249.361ZM485.52 194.033H597.24V210.791L528.479 264.124H598.171V285.936H484.456V269.045L551.355 215.313H485.52V194.033ZM1314.25 193.102H1345.91V238.056C1345.91 241.913 1345.51 245.903 1344.57 249.893C1343.64 253.883 1341.65 258.139 1338.86 262.661C1336.06 267.316 1332.47 271.439 1328.08 274.897C1323.69 278.355 1317.71 281.281 1309.99 283.542C1302.41 285.936 1293.64 287 1283.66 287H673.324C665.743 287 658.96 286.468 652.709 285.271C646.458 284.074 641.271 282.478 636.882 280.483C632.626 278.488 628.902 276.094 625.577 273.301C622.385 270.375 619.725 267.582 617.863 264.656C616.001 261.73 614.405 258.671 613.208 255.346C611.878 252.021 611.08 248.962 610.681 246.169C610.282 243.509 610.149 240.716 610.149 238.056V193.102H641.936V236.327C641.936 239.652 642.468 242.711 643.399 245.504C644.33 248.43 645.926 251.223 648.187 254.016C650.581 256.809 654.039 258.937 658.694 260.666C662.684 261.996 667.472 262.794 672.792 262.927C673.723 263.06 1280.07 263.06 1281 263.06C1287.39 263.06 1292.97 262.262 1297.49 260.666C1302.15 258.937 1305.61 256.809 1307.87 254.016C1310.13 251.223 1311.86 248.43 1312.79 245.504C1313.72 242.711 1314.25 239.652 1314.25 236.327V193.102ZM1362.04 194.033H1393.69V263.991H1464.32V287.133H1362.04V194.033Z" fill="#202020"/>
<path d="M145.447 304L170.256 221.659H111.396L86.5873 304H26.7545L51.5633 221.659H0L12.1611 178.784H64.2108L78.8042 131.036H26.7545L39.4021 88.1601H91.4518L112.369 18H172.688L151.771 88.1601H210.145L231.062 18H291.381L270.464 88.1601H323L309.866 131.036H257.33L242.736 178.784H296.245L283.111 221.659H230.089L205.28 304H145.447ZM182.904 178.784L197.497 131.036H138.637L124.53 178.784H182.904Z" fill="#0505FF"/>
</svg>
